<svg width="153" height="97" viewBox="0 0 153 97" fill="none" xmlns="http://www.w3.org/2000/svg">
<mask id="path-1-outside-1_166_401" maskUnits="userSpaceOnUse" x="0" y="9" width="153" height="79" fill="black">
<rect fill="white" y="9" width="153" height="79"/>
<path d="M12.3712 18.6464L11.6364 22.5431H15.0241V24.2345H11.3001L10.4407 28.7577H8.64725L9.53154 24.2345H5.98192L5.11008 28.7577H3.35396L4.17597 24.2345H1V22.5431H4.4998L5.272 18.6464H1.92166V16.9675H5.57091L6.41784 12.5321H8.21133L7.37686 16.9675H10.9514L11.8108 12.5321H13.5669L12.7075 16.9675H15.9084V18.6464H12.3712ZM6.29329 22.5431H9.85536L10.6027 18.6464H7.05303L6.29329 22.5431Z"/>
<path d="M21.8687 28.7577V21.9577C21.8687 19.52 22.94 18.083 24.7255 18.083C26.3325 18.083 27.1232 19.0837 27.1232 21.1109V28.7577H30.1841V20.803C30.1841 17.3645 28.7557 15.6196 25.9754 15.6196C23.9858 15.6196 22.5829 16.5434 21.7411 18.4166V15.9275H18.8078V28.7577H21.8687Z"/>
<path d="M39.1938 29.0656C42.8669 29.0656 45.4686 26.6279 45.4686 22.3169C45.4686 18.0317 42.8669 15.6196 39.1938 15.6196C35.5207 15.6196 32.9445 18.0317 32.9445 22.3169C32.9445 26.6279 35.5207 29.0656 39.1938 29.0656ZM39.1938 26.7305C37.2297 26.7305 36.0819 25.2422 36.0819 22.3169C36.0819 19.3917 37.2297 17.9547 39.1938 17.9547C41.1579 17.9547 42.3312 19.3917 42.3312 22.3169C42.3312 25.2422 41.1579 26.7305 39.1938 26.7305Z"/>
<path d="M59.6593 21.7011C59.6593 17.7751 57.5422 15.6196 53.8436 15.6196C50.043 15.6196 47.7218 18.237 47.7218 22.4709C47.7218 26.6792 50.0685 29.0656 53.9712 29.0656C56.5984 29.0656 58.588 27.8339 59.5573 25.6015L57.1851 24.5237C56.6239 25.9094 55.5271 26.6535 54.0987 26.6535C52.0836 26.6535 50.7317 25.2679 50.7062 23.1124H59.6593V21.7011ZM56.6239 21.0852H50.7062C50.7572 18.9554 51.854 17.6724 53.7671 17.6724C55.6036 17.6724 56.6494 18.7758 56.6239 20.88V21.0852Z"/>
<path d="M66.5461 15.9275V14.4906C66.5461 13.1306 67.1073 12.4634 68.3316 12.4634C68.7142 12.4634 69.1734 12.5147 69.6325 12.5917V10.2053C69.0714 10.077 68.4592 10 67.8215 10C65.0922 10 63.4852 11.6166 63.4852 14.2853V15.9275H61.2916V18.16H63.4852V28.7577H66.5461V18.16H69.6325V15.9275H66.5461Z"/>
<path d="M76.3167 15.9275V14.4906C76.3167 13.1306 76.8778 12.4634 78.1022 12.4634C78.4848 12.4634 78.9439 12.5147 79.4031 12.5917V10.2053C78.8419 10.077 78.2297 10 77.592 10C74.8627 10 73.2558 11.6166 73.2558 14.2853V15.9275H71.0621V18.16H73.2558V28.7577H76.3167V18.16H79.4031V15.9275H76.3167Z"/>
<path d="M92.7074 21.7011C92.7074 17.7751 90.5903 15.6196 86.8917 15.6196C83.0911 15.6196 80.7699 18.237 80.7699 22.4709C80.7699 26.6792 83.1166 29.0656 87.0192 29.0656C89.6465 29.0656 91.6361 27.8339 92.6054 25.6015L90.2332 24.5237C89.672 25.9094 88.5752 26.6535 87.1468 26.6535C85.1317 26.6535 83.7798 25.2679 83.7543 23.1124H92.7074V21.7011ZM89.672 21.0852H83.7543C83.8053 18.9554 84.9021 17.6724 86.8152 17.6724C88.6517 17.6724 89.6975 18.7758 89.672 20.88V21.0852Z"/>
<path d="M101.224 29.0656C104.26 29.0656 106.377 27.3207 106.836 24.4724L103.954 23.8822C103.673 25.6784 102.729 26.6279 101.224 26.6279C99.2602 26.6279 98.1124 25.0369 98.1124 22.2656C98.1124 19.6226 99.2602 18.0317 101.173 18.0317C102.678 18.0317 103.647 18.9811 103.877 20.726L106.861 20.2385C106.453 17.3132 104.387 15.6196 101.25 15.6196C97.3471 15.6196 94.9494 18.16 94.9494 22.3426C94.9494 26.4226 97.4237 29.0656 101.224 29.0656Z"/>
<path d="M110.461 18.16V24.7803C110.461 27.372 111.482 28.9886 114.543 28.9886C115.333 28.9886 115.894 28.9116 116.634 28.7577V26.166C116.226 26.243 115.894 26.3199 115.384 26.3199C114.109 26.3199 113.522 25.6528 113.522 24.2928V18.16H116.634V15.9275H113.522V11.4626L110.461 12.6943V15.9275H108.166V18.16H110.461Z"/>
<path d="M12.3712 45.2015L11.6364 49.0982H15.0241V50.7897H11.3001L10.4407 55.3128H8.64725L9.53154 50.7897H5.98192L5.11008 55.3128H3.35396L4.17597 50.7897H1V49.0982H4.4998L5.272 45.2015H1.92166V43.5226H5.57091L6.41784 39.0872H8.21133L7.37686 43.5226H10.9514L11.8108 39.0872H13.5669L12.7075 43.5226H15.9084V45.2015H12.3712ZM6.29329 49.0982H9.85536L10.6027 45.2015H7.05303L6.29329 49.0982Z"/>
<path d="M22.889 55.6207C24.7 55.6207 26.2559 54.5173 26.8426 52.9264V55.3128H29.7505V42.4827H26.6896V49.5906C26.6896 51.746 25.5672 53.1573 23.8582 53.1573C22.4043 53.1573 21.6136 52.1309 21.6136 50.2577V42.4827H18.5527V50.7196C18.5527 53.7219 19.7515 55.6207 22.889 55.6207Z"/>
<path d="M36.5962 55.3128V48.5128C36.5962 46.0751 37.6675 44.6381 39.453 44.6381C41.06 44.6381 41.8507 45.6389 41.8507 47.666V55.3128H44.9116V47.3581C44.9116 43.9196 43.4832 42.1747 40.7029 42.1747C38.7133 42.1747 37.3104 43.0985 36.4687 44.9717V42.4827H33.5353V55.3128H36.5962Z"/>
<path d="M52.7225 55.6207C54.6611 55.6207 56.115 54.6456 56.8037 53.0034V55.3128H59.7115V36.7091H56.6506V44.3045C55.9109 42.8676 54.6356 42.1747 52.9776 42.1747C49.7891 42.1747 47.5955 44.8947 47.5955 48.9234C47.5955 52.9264 49.6616 55.6207 52.7225 55.6207ZM53.7938 53.26C51.9063 53.26 50.7839 51.6177 50.7839 48.8721C50.7839 46.1264 51.8807 44.5355 53.7683 44.5355C55.5793 44.5355 56.7017 45.9981 56.7017 48.5128V49.334C56.7017 51.746 55.5793 53.26 53.7938 53.26Z"/>
<path d="M74.6609 48.2562C74.6609 44.3302 72.5438 42.1747 68.8452 42.1747C65.0446 42.1747 62.7234 44.7921 62.7234 49.026C62.7234 53.2343 65.0701 55.6207 68.9727 55.6207C71.6 55.6207 73.5896 54.389 74.5588 52.1566L72.1866 51.0789C71.6255 52.4645 70.5287 53.2087 69.1003 53.2087C67.0852 53.2087 65.7333 51.823 65.7078 49.6675H74.6609V48.2562ZM71.6255 47.6404H65.7078C65.7588 45.5106 66.8556 44.2276 68.7687 44.2276C70.6052 44.2276 71.651 45.331 71.6255 47.4351V47.6404Z"/>
<path d="M80.525 42.4827H77.6682V55.3128H80.729V49.9241C80.729 48.5128 80.8566 47.0502 81.9024 46.0494C82.4636 45.4849 83.3308 45.1257 84.5552 45.1257C84.6827 45.1257 84.8102 45.1513 84.9633 45.1513V42.2004C84.8357 42.1747 84.7082 42.1747 84.5807 42.1747C82.5401 42.1747 81.1627 43.5604 80.525 45.5876V42.4827Z"/>
<path d="M92.9678 55.3128L95.136 46.9989C95.238 46.614 95.3655 45.9211 95.391 45.5876H95.4676C95.4931 45.9211 95.6206 46.614 95.7226 46.9989L97.8908 55.3128H101.003L104.523 42.4827H101.487L99.5232 51.0275C99.4467 51.4381 99.3447 51.9256 99.2937 52.4132H99.2427C99.1917 51.9256 99.0641 51.4381 98.9621 51.0275L96.8705 42.4827H93.9881L91.8965 51.0275C91.7945 51.4381 91.667 51.9256 91.6159 52.4132H91.5649C91.5139 51.9256 91.4119 51.4381 91.3354 51.0275L89.3713 42.4827H86.3359L89.8559 55.3128H92.9678Z"/>
<path d="M110.27 55.6207C112.31 55.6207 113.917 54.6713 114.529 53.106C114.555 53.9015 114.631 54.6713 114.733 55.3128H117.794C117.539 54.4147 117.412 53.0804 117.412 51.3355V47.5121C117.412 43.7913 115.728 42.1747 111.953 42.1747C108.663 42.1747 106.52 43.8683 106.316 46.614H109.453C109.555 45.1513 110.448 44.3559 111.953 44.3559C113.586 44.3559 114.325 45.177 114.325 47.1015V47.4351L111.622 47.7687C109.606 48.0509 108.382 48.3845 107.464 48.9234C106.444 49.5649 105.908 50.5913 105.908 51.823C105.908 54.1068 107.642 55.6207 110.27 55.6207ZM111.239 53.4396C109.887 53.4396 109.071 52.7468 109.071 51.669C109.071 50.5657 109.836 49.9498 111.52 49.6675L114.402 49.2313V50.0524C114.402 52.0796 113.126 53.4396 111.239 53.4396Z"/>
<path d="M121.745 44.7151V51.3355C121.745 53.9272 122.766 55.5438 125.827 55.5438C126.617 55.5438 127.178 55.4668 127.918 55.3128V52.7211C127.51 52.7981 127.178 52.8751 126.668 52.8751C125.393 52.8751 124.806 52.2079 124.806 50.8479V44.7151H127.918V42.4827H124.806V38.0178L121.745 39.2495V42.4827H119.45V44.7151H121.745Z"/>
<path d="M141.698 48.2562C141.698 44.3302 139.58 42.1747 135.882 42.1747C132.081 42.1747 129.76 44.7921 129.76 49.026C129.76 53.2343 132.107 55.6207 136.009 55.6207C138.637 55.6207 140.626 54.389 141.596 52.1566L139.223 51.0789C138.662 52.4645 137.565 53.2087 136.137 53.2087C134.122 53.2087 132.77 51.823 132.744 49.6675H141.698V48.2562ZM138.662 47.6404H132.744C132.795 45.5106 133.892 44.2276 135.805 44.2276C137.642 44.2276 138.688 45.331 138.662 47.4351V47.6404Z"/>
<path d="M147.562 42.4827H144.705V55.3128H147.766V49.9241C147.766 48.5128 147.893 47.0502 148.939 46.0494C149.5 45.4849 150.368 45.1257 151.592 45.1257C151.719 45.1257 151.847 45.1513 152 45.1513V42.2004C151.872 42.1747 151.745 42.1747 151.617 42.1747C149.577 42.1747 148.199 43.5604 147.562 45.5876V42.4827Z"/>
<path d="M12.3712 71.7567L11.6364 75.6533H15.0241V77.3448H11.3001L10.4407 81.8679H8.64725L9.53154 77.3448H5.98192L5.11008 81.8679H3.35396L4.17597 77.3448H1V75.6533H4.4998L5.272 71.7567H1.92166V70.0777H5.57091L6.41784 65.6423H8.21133L7.37686 70.0777H10.9514L11.8108 65.6423H13.5669L12.7075 70.0777H15.9084V71.7567H12.3712ZM6.29329 75.6533H9.85536L10.6027 71.7567H7.05303L6.29329 75.6533Z"/>
<path d="M23.093 82.1759C25.0316 82.1759 26.4855 81.2008 27.1742 79.5585V81.8679H30.0821V63.2642H27.0212V70.8597C26.2814 69.4227 25.0061 68.7299 23.3481 68.7299C20.1597 68.7299 17.966 71.4499 17.966 75.4785C17.966 79.4815 20.0321 82.1759 23.093 82.1759ZM24.1643 79.8151C22.2768 79.8151 21.1545 78.1729 21.1545 75.4272C21.1545 72.6816 22.2513 71.0906 24.1388 71.0906C25.9499 71.0906 27.0722 72.5533 27.0722 75.068V75.8891C27.0722 78.3012 25.9499 79.8151 24.1643 79.8151Z"/>
<path d="M45.0314 74.8114C45.0314 70.8853 42.9143 68.7299 39.2157 68.7299C35.4151 68.7299 33.0939 71.3472 33.0939 75.5812C33.0939 79.7895 35.4406 82.1759 39.3432 82.1759C41.9705 82.1759 43.9601 80.9442 44.9294 78.7117L42.5572 77.634C41.996 79.0196 40.8992 79.7638 39.4708 79.7638C37.4557 79.7638 36.1038 78.3781 36.0783 76.2227H45.0314V74.8114ZM41.996 74.1955H36.0783C36.1293 72.0657 37.2261 70.7827 39.1392 70.7827C40.9757 70.7827 42.0215 71.8861 41.996 73.9902V74.1955Z"/>
<path d="M52.7333 82.1759C56.0492 82.1759 57.9623 80.5336 57.9623 78.1215C57.9623 76.0944 56.891 74.8627 54.4423 74.4265L51.9425 73.9646C50.8202 73.7593 50.2335 73.3744 50.2335 72.5019C50.2335 71.5012 51.0498 70.9623 52.4782 70.9623C54.1617 70.9623 55.284 71.6808 55.8962 72.8355L58.0133 71.6808C57.4011 69.8333 55.3605 68.7299 52.6312 68.7299C49.3918 68.7299 47.4277 70.3721 47.4277 72.6816C47.4277 74.7344 48.7031 75.9917 51.0753 76.428L53.3454 76.8385C54.6208 77.0438 55.182 77.4031 55.182 78.3268C55.182 79.2506 54.3657 79.9178 52.7843 79.9178C50.9732 79.9178 49.6979 79.0966 49.1367 77.6597L46.8665 78.6861C47.6573 80.9442 49.8254 82.1759 52.7333 82.1759Z"/>
<path d="M61.7641 71.2702V77.8906C61.7641 80.4823 62.7844 82.0989 65.8453 82.0989C66.636 82.0989 67.1972 82.0219 67.9369 81.8679V79.2763C67.5288 79.3532 67.1972 79.4302 66.687 79.4302C65.4116 79.4302 64.825 78.763 64.825 77.403V71.2702H67.9369V69.0378H64.825V64.5729L61.7641 65.8046V69.0378H59.4684V71.2702H61.7641Z"/>
<path d="M73.5254 69.0378H70.6686V81.8679H73.7295V76.4793C73.7295 75.068 73.857 73.6053 74.9028 72.6046C75.464 72.04 76.3312 71.6808 77.5556 71.6808C77.6831 71.6808 77.8106 71.7065 77.9637 71.7065V68.7555C77.8362 68.7299 77.7086 68.7299 77.5811 68.7299C75.5405 68.7299 74.1631 70.1155 73.5254 72.1427V69.0378Z"/>
<path d="M85.699 82.1759C89.3721 82.1759 91.9738 79.7381 91.9738 75.4272C91.9738 71.1419 89.3721 68.7299 85.699 68.7299C82.0259 68.7299 79.4497 71.1419 79.4497 75.4272C79.4497 79.7381 82.0259 82.1759 85.699 82.1759ZM85.699 79.8408C83.7349 79.8408 82.5871 78.3525 82.5871 75.4272C82.5871 72.5019 83.7349 71.065 85.699 71.065C87.6631 71.065 88.8364 72.5019 88.8364 75.4272C88.8364 78.3525 87.6631 79.8408 85.699 79.8408Z"/>
<path d="M95.3554 87C98.0847 87 99.8192 85.8453 100.967 82.5864L105.737 69.0378H102.574L100.023 77.4287C99.8447 78.0959 99.7171 78.5578 99.6406 78.9427H99.5896C99.5386 78.5064 99.4366 78.0189 99.2325 77.4287L96.4522 69.0378H93.0852L98.0592 81.7396L97.8041 82.5094C97.3194 83.9208 96.5287 84.5366 95.0238 84.5366C94.7177 84.5366 94.4116 84.5366 93.9525 84.434V86.8717C94.4881 86.9487 94.9728 87 95.3554 87Z"/>
</mask>
<path d="M12.3712 18.6464L11.6364 22.5431H15.0241V24.2345H11.3001L10.4407 28.7577H8.64725L9.53154 24.2345H5.98192L5.11008 28.7577H3.35396L4.17597 24.2345H1V22.5431H4.4998L5.272 18.6464H1.92166V16.9675H5.57091L6.41784 12.5321H8.21133L7.37686 16.9675H10.9514L11.8108 12.5321H13.5669L12.7075 16.9675H15.9084V18.6464H12.3712ZM6.29329 22.5431H9.85536L10.6027 18.6464H7.05303L6.29329 22.5431Z" fill="#FFFEF9"/>
<path d="M21.8687 28.7577V21.9577C21.8687 19.52 22.94 18.083 24.7255 18.083C26.3325 18.083 27.1232 19.0837 27.1232 21.1109V28.7577H30.1841V20.803C30.1841 17.3645 28.7557 15.6196 25.9754 15.6196C23.9858 15.6196 22.5829 16.5434 21.7411 18.4166V15.9275H18.8078V28.7577H21.8687Z" fill="#FFFEF9"/>
<path d="M39.1938 29.0656C42.8669 29.0656 45.4686 26.6279 45.4686 22.3169C45.4686 18.0317 42.8669 15.6196 39.1938 15.6196C35.5207 15.6196 32.9445 18.0317 32.9445 22.3169C32.9445 26.6279 35.5207 29.0656 39.1938 29.0656ZM39.1938 26.7305C37.2297 26.7305 36.0819 25.2422 36.0819 22.3169C36.0819 19.3917 37.2297 17.9547 39.1938 17.9547C41.1579 17.9547 42.3312 19.3917 42.3312 22.3169C42.3312 25.2422 41.1579 26.7305 39.1938 26.7305Z" fill="#FFFEF9"/>
<path d="M59.6593 21.7011C59.6593 17.7751 57.5422 15.6196 53.8436 15.6196C50.043 15.6196 47.7218 18.237 47.7218 22.4709C47.7218 26.6792 50.0685 29.0656 53.9712 29.0656C56.5984 29.0656 58.588 27.8339 59.5573 25.6015L57.1851 24.5237C56.6239 25.9094 55.5271 26.6535 54.0987 26.6535C52.0836 26.6535 50.7317 25.2679 50.7062 23.1124H59.6593V21.7011ZM56.6239 21.0852H50.7062C50.7572 18.9554 51.854 17.6724 53.7671 17.6724C55.6036 17.6724 56.6494 18.7758 56.6239 20.88V21.0852Z" fill="#FFFEF9"/>
<path d="M66.5461 15.9275V14.4906C66.5461 13.1306 67.1073 12.4634 68.3316 12.4634C68.7142 12.4634 69.1734 12.5147 69.6325 12.5917V10.2053C69.0714 10.077 68.4592 10 67.8215 10C65.0922 10 63.4852 11.6166 63.4852 14.2853V15.9275H61.2916V18.16H63.4852V28.7577H66.5461V18.16H69.6325V15.9275H66.5461Z" fill="#FFFEF9"/>
<path d="M76.3167 15.9275V14.4906C76.3167 13.1306 76.8778 12.4634 78.1022 12.4634C78.4848 12.4634 78.9439 12.5147 79.4031 12.5917V10.2053C78.8419 10.077 78.2297 10 77.592 10C74.8627 10 73.2558 11.6166 73.2558 14.2853V15.9275H71.0621V18.16H73.2558V28.7577H76.3167V18.16H79.4031V15.9275H76.3167Z" fill="#FFFEF9"/>
<path d="M92.7074 21.7011C92.7074 17.7751 90.5903 15.6196 86.8917 15.6196C83.0911 15.6196 80.7699 18.237 80.7699 22.4709C80.7699 26.6792 83.1166 29.0656 87.0192 29.0656C89.6465 29.0656 91.6361 27.8339 92.6054 25.6015L90.2332 24.5237C89.672 25.9094 88.5752 26.6535 87.1468 26.6535C85.1317 26.6535 83.7798 25.2679 83.7543 23.1124H92.7074V21.7011ZM89.672 21.0852H83.7543C83.8053 18.9554 84.9021 17.6724 86.8152 17.6724C88.6517 17.6724 89.6975 18.7758 89.672 20.88V21.0852Z" fill="#FFFEF9"/>
<path d="M101.224 29.0656C104.26 29.0656 106.377 27.3207 106.836 24.4724L103.954 23.8822C103.673 25.6784 102.729 26.6279 101.224 26.6279C99.2602 26.6279 98.1124 25.0369 98.1124 22.2656C98.1124 19.6226 99.2602 18.0317 101.173 18.0317C102.678 18.0317 103.647 18.9811 103.877 20.726L106.861 20.2385C106.453 17.3132 104.387 15.6196 101.25 15.6196C97.3471 15.6196 94.9494 18.16 94.9494 22.3426C94.9494 26.4226 97.4237 29.0656 101.224 29.0656Z" fill="#FFFEF9"/>
<path d="M110.461 18.16V24.7803C110.461 27.372 111.482 28.9886 114.543 28.9886C115.333 28.9886 115.894 28.9116 116.634 28.7577V26.166C116.226 26.243 115.894 26.3199 115.384 26.3199C114.109 26.3199 113.522 25.6528 113.522 24.2928V18.16H116.634V15.9275H113.522V11.4626L110.461 12.6943V15.9275H108.166V18.16H110.461Z" fill="#FFFEF9"/>
<path d="M12.3712 45.2015L11.6364 49.0982H15.0241V50.7897H11.3001L10.4407 55.3128H8.64725L9.53154 50.7897H5.98192L5.11008 55.3128H3.35396L4.17597 50.7897H1V49.0982H4.4998L5.272 45.2015H1.92166V43.5226H5.57091L6.41784 39.0872H8.21133L7.37686 43.5226H10.9514L11.8108 39.0872H13.5669L12.7075 43.5226H15.9084V45.2015H12.3712ZM6.29329 49.0982H9.85536L10.6027 45.2015H7.05303L6.29329 49.0982Z" fill="#E8ECD6" fill-opacity="0.75"/>
<path d="M22.889 55.6207C24.7 55.6207 26.2559 54.5173 26.8426 52.9264V55.3128H29.7505V42.4827H26.6896V49.5906C26.6896 51.746 25.5672 53.1573 23.8582 53.1573C22.4043 53.1573 21.6136 52.1309 21.6136 50.2577V42.4827H18.5527V50.7196C18.5527 53.7219 19.7515 55.6207 22.889 55.6207Z" fill="#E8ECD6" fill-opacity="0.75"/>
<path d="M36.5962 55.3128V48.5128C36.5962 46.0751 37.6675 44.6381 39.453 44.6381C41.06 44.6381 41.8507 45.6389 41.8507 47.666V55.3128H44.9116V47.3581C44.9116 43.9196 43.4832 42.1747 40.7029 42.1747C38.7133 42.1747 37.3104 43.0985 36.4687 44.9717V42.4827H33.5353V55.3128H36.5962Z" fill="#E8ECD6" fill-opacity="0.75"/>
<path d="M52.7225 55.6207C54.6611 55.6207 56.115 54.6456 56.8037 53.0034V55.3128H59.7115V36.7091H56.6506V44.3045C55.9109 42.8676 54.6356 42.1747 52.9776 42.1747C49.7891 42.1747 47.5955 44.8947 47.5955 48.9234C47.5955 52.9264 49.6616 55.6207 52.7225 55.6207ZM53.7938 53.26C51.9063 53.26 50.7839 51.6177 50.7839 48.8721C50.7839 46.1264 51.8807 44.5355 53.7683 44.5355C55.5793 44.5355 56.7017 45.9981 56.7017 48.5128V49.334C56.7017 51.746 55.5793 53.26 53.7938 53.26Z" fill="#E8ECD6" fill-opacity="0.75"/>
<path d="M74.6609 48.2562C74.6609 44.3302 72.5438 42.1747 68.8452 42.1747C65.0446 42.1747 62.7234 44.7921 62.7234 49.026C62.7234 53.2343 65.0701 55.6207 68.9727 55.6207C71.6 55.6207 73.5896 54.389 74.5588 52.1566L72.1866 51.0789C71.6255 52.4645 70.5287 53.2087 69.1003 53.2087C67.0852 53.2087 65.7333 51.823 65.7078 49.6675H74.6609V48.2562ZM71.6255 47.6404H65.7078C65.7588 45.5106 66.8556 44.2276 68.7687 44.2276C70.6052 44.2276 71.651 45.331 71.6255 47.4351V47.6404Z" fill="#E8ECD6" fill-opacity="0.75"/>
<path d="M80.525 42.4827H77.6682V55.3128H80.729V49.9241C80.729 48.5128 80.8566 47.0502 81.9024 46.0494C82.4636 45.4849 83.3308 45.1257 84.5552 45.1257C84.6827 45.1257 84.8102 45.1513 84.9633 45.1513V42.2004C84.8357 42.1747 84.7082 42.1747 84.5807 42.1747C82.5401 42.1747 81.1627 43.5604 80.525 45.5876V42.4827Z" fill="#E8ECD6" fill-opacity="0.75"/>
<path d="M92.9678 55.3128L95.136 46.9989C95.238 46.614 95.3655 45.9211 95.391 45.5876H95.4676C95.4931 45.9211 95.6206 46.614 95.7226 46.9989L97.8908 55.3128H101.003L104.523 42.4827H101.487L99.5232 51.0275C99.4467 51.4381 99.3447 51.9256 99.2937 52.4132H99.2427C99.1917 51.9256 99.0641 51.4381 98.9621 51.0275L96.8705 42.4827H93.9881L91.8965 51.0275C91.7945 51.4381 91.667 51.9256 91.6159 52.4132H91.5649C91.5139 51.9256 91.4119 51.4381 91.3354 51.0275L89.3713 42.4827H86.3359L89.8559 55.3128H92.9678Z" fill="#E8ECD6" fill-opacity="0.75"/>
<path d="M110.27 55.6207C112.31 55.6207 113.917 54.6713 114.529 53.106C114.555 53.9015 114.631 54.6713 114.733 55.3128H117.794C117.539 54.4147 117.412 53.0804 117.412 51.3355V47.5121C117.412 43.7913 115.728 42.1747 111.953 42.1747C108.663 42.1747 106.52 43.8683 106.316 46.614H109.453C109.555 45.1513 110.448 44.3559 111.953 44.3559C113.586 44.3559 114.325 45.177 114.325 47.1015V47.4351L111.622 47.7687C109.606 48.0509 108.382 48.3845 107.464 48.9234C106.444 49.5649 105.908 50.5913 105.908 51.823C105.908 54.1068 107.642 55.6207 110.27 55.6207ZM111.239 53.4396C109.887 53.4396 109.071 52.7468 109.071 51.669C109.071 50.5657 109.836 49.9498 111.52 49.6675L114.402 49.2313V50.0524C114.402 52.0796 113.126 53.4396 111.239 53.4396Z" fill="#E8ECD6" fill-opacity="0.75"/>
<path d="M121.745 44.7151V51.3355C121.745 53.9272 122.766 55.5438 125.827 55.5438C126.617 55.5438 127.178 55.4668 127.918 55.3128V52.7211C127.51 52.7981 127.178 52.8751 126.668 52.8751C125.393 52.8751 124.806 52.2079 124.806 50.8479V44.7151H127.918V42.4827H124.806V38.0178L121.745 39.2495V42.4827H119.45V44.7151H121.745Z" fill="#E8ECD6" fill-opacity="0.75"/>
<path d="M141.698 48.2562C141.698 44.3302 139.58 42.1747 135.882 42.1747C132.081 42.1747 129.76 44.7921 129.76 49.026C129.76 53.2343 132.107 55.6207 136.009 55.6207C138.637 55.6207 140.626 54.389 141.596 52.1566L139.223 51.0789C138.662 52.4645 137.565 53.2087 136.137 53.2087C134.122 53.2087 132.77 51.823 132.744 49.6675H141.698V48.2562ZM138.662 47.6404H132.744C132.795 45.5106 133.892 44.2276 135.805 44.2276C137.642 44.2276 138.688 45.331 138.662 47.4351V47.6404Z" fill="#E8ECD6" fill-opacity="0.75"/>
<path d="M147.562 42.4827H144.705V55.3128H147.766V49.9241C147.766 48.5128 147.893 47.0502 148.939 46.0494C149.5 45.4849 150.368 45.1257 151.592 45.1257C151.719 45.1257 151.847 45.1513 152 45.1513V42.2004C151.872 42.1747 151.745 42.1747 151.617 42.1747C149.577 42.1747 148.199 43.5604 147.562 45.5876V42.4827Z" fill="#E8ECD6" fill-opacity="0.75"/>
<path d="M12.3712 71.7567L11.6364 75.6533H15.0241V77.3448H11.3001L10.4407 81.8679H8.64725L9.53154 77.3448H5.98192L5.11008 81.8679H3.35396L4.17597 77.3448H1V75.6533H4.4998L5.272 71.7567H1.92166V70.0777H5.57091L6.41784 65.6423H8.21133L7.37686 70.0777H10.9514L11.8108 65.6423H13.5669L12.7075 70.0777H15.9084V71.7567H12.3712ZM6.29329 75.6533H9.85536L10.6027 71.7567H7.05303L6.29329 75.6533Z" fill="#E8ECD6" fill-opacity="0.75"/>
<path d="M23.093 82.1759C25.0316 82.1759 26.4855 81.2008 27.1742 79.5585V81.8679H30.0821V63.2642H27.0212V70.8597C26.2814 69.4227 25.0061 68.7299 23.3481 68.7299C20.1597 68.7299 17.966 71.4499 17.966 75.4785C17.966 79.4815 20.0321 82.1759 23.093 82.1759ZM24.1643 79.8151C22.2768 79.8151 21.1545 78.1729 21.1545 75.4272C21.1545 72.6816 22.2513 71.0906 24.1388 71.0906C25.9499 71.0906 27.0722 72.5533 27.0722 75.068V75.8891C27.0722 78.3012 25.9499 79.8151 24.1643 79.8151Z" fill="#E8ECD6" fill-opacity="0.75"/>
<path d="M45.0314 74.8114C45.0314 70.8853 42.9143 68.7299 39.2157 68.7299C35.4151 68.7299 33.0939 71.3472 33.0939 75.5812C33.0939 79.7895 35.4406 82.1759 39.3432 82.1759C41.9705 82.1759 43.9601 80.9442 44.9294 78.7117L42.5572 77.634C41.996 79.0196 40.8992 79.7638 39.4708 79.7638C37.4557 79.7638 36.1038 78.3781 36.0783 76.2227H45.0314V74.8114ZM41.996 74.1955H36.0783C36.1293 72.0657 37.2261 70.7827 39.1392 70.7827C40.9757 70.7827 42.0215 71.8861 41.996 73.9902V74.1955Z" fill="#E8ECD6" fill-opacity="0.75"/>
<path d="M52.7333 82.1759C56.0492 82.1759 57.9623 80.5336 57.9623 78.1215C57.9623 76.0944 56.891 74.8627 54.4423 74.4265L51.9425 73.9646C50.8202 73.7593 50.2335 73.3744 50.2335 72.5019C50.2335 71.5012 51.0498 70.9623 52.4782 70.9623C54.1617 70.9623 55.284 71.6808 55.8962 72.8355L58.0133 71.6808C57.4011 69.8333 55.3605 68.7299 52.6312 68.7299C49.3918 68.7299 47.4277 70.3721 47.4277 72.6816C47.4277 74.7344 48.7031 75.9917 51.0753 76.428L53.3454 76.8385C54.6208 77.0438 55.182 77.4031 55.182 78.3268C55.182 79.2506 54.3657 79.9178 52.7843 79.9178C50.9732 79.9178 49.6979 79.0966 49.1367 77.6597L46.8665 78.6861C47.6573 80.9442 49.8254 82.1759 52.7333 82.1759Z" fill="#E8ECD6" fill-opacity="0.75"/>
<path d="M61.7641 71.2702V77.8906C61.7641 80.4823 62.7844 82.0989 65.8453 82.0989C66.636 82.0989 67.1972 82.0219 67.9369 81.8679V79.2763C67.5288 79.3532 67.1972 79.4302 66.687 79.4302C65.4116 79.4302 64.825 78.763 64.825 77.403V71.2702H67.9369V69.0378H64.825V64.5729L61.7641 65.8046V69.0378H59.4684V71.2702H61.7641Z" fill="#E8ECD6" fill-opacity="0.75"/>
<path d="M73.5254 69.0378H70.6686V81.8679H73.7295V76.4793C73.7295 75.068 73.857 73.6053 74.9028 72.6046C75.464 72.04 76.3312 71.6808 77.5556 71.6808C77.6831 71.6808 77.8106 71.7065 77.9637 71.7065V68.7555C77.8362 68.7299 77.7086 68.7299 77.5811 68.7299C75.5405 68.7299 74.1631 70.1155 73.5254 72.1427V69.0378Z" fill="#E8ECD6" fill-opacity="0.75"/>
<path d="M85.699 82.1759C89.3721 82.1759 91.9738 79.7381 91.9738 75.4272C91.9738 71.1419 89.3721 68.7299 85.699 68.7299C82.0259 68.7299 79.4497 71.1419 79.4497 75.4272C79.4497 79.7381 82.0259 82.1759 85.699 82.1759ZM85.699 79.8408C83.7349 79.8408 82.5871 78.3525 82.5871 75.4272C82.5871 72.5019 83.7349 71.065 85.699 71.065C87.6631 71.065 88.8364 72.5019 88.8364 75.4272C88.8364 78.3525 87.6631 79.8408 85.699 79.8408Z" fill="#E8ECD6" fill-opacity="0.75"/>
<path d="M95.3554 87C98.0847 87 99.8192 85.8453 100.967 82.5864L105.737 69.0378H102.574L100.023 77.4287C99.8447 78.0959 99.7171 78.5578 99.6406 78.9427H99.5896C99.5386 78.5064 99.4366 78.0189 99.2325 77.4287L96.4522 69.0378H93.0852L98.0592 81.7396L97.8041 82.5094C97.3194 83.9208 96.5287 84.5366 95.0238 84.5366C94.7177 84.5366 94.4116 84.5366 93.9525 84.434V86.8717C94.4881 86.9487 94.9728 87 95.3554 87Z" fill="#E8ECD6" fill-opacity="0.75"/>
<path d="M12.3712 18.6464L11.6364 22.5431H15.0241V24.2345H11.3001L10.4407 28.7577H8.64725L9.53154 24.2345H5.98192L5.11008 28.7577H3.35396L4.17597 24.2345H1V22.5431H4.4998L5.272 18.6464H1.92166V16.9675H5.57091L6.41784 12.5321H8.21133L7.37686 16.9675H10.9514L11.8108 12.5321H13.5669L12.7075 16.9675H15.9084V18.6464H12.3712ZM6.29329 22.5431H9.85536L10.6027 18.6464H7.05303L6.29329 22.5431Z" stroke="#706C73" stroke-width="2" stroke-linejoin="round" mask="url(#path-1-outside-1_166_401)"/>
<path d="M21.8687 28.7577V21.9577C21.8687 19.52 22.94 18.083 24.7255 18.083C26.3325 18.083 27.1232 19.0837 27.1232 21.1109V28.7577H30.1841V20.803C30.1841 17.3645 28.7557 15.6196 25.9754 15.6196C23.9858 15.6196 22.5829 16.5434 21.7411 18.4166V15.9275H18.8078V28.7577H21.8687Z" stroke="#706C73" stroke-width="2" stroke-linejoin="round" mask="url(#path-1-outside-1_166_401)"/>
<path d="M39.1938 29.0656C42.8669 29.0656 45.4686 26.6279 45.4686 22.3169C45.4686 18.0317 42.8669 15.6196 39.1938 15.6196C35.5207 15.6196 32.9445 18.0317 32.9445 22.3169C32.9445 26.6279 35.5207 29.0656 39.1938 29.0656ZM39.1938 26.7305C37.2297 26.7305 36.0819 25.2422 36.0819 22.3169C36.0819 19.3917 37.2297 17.9547 39.1938 17.9547C41.1579 17.9547 42.3312 19.3917 42.3312 22.3169C42.3312 25.2422 41.1579 26.7305 39.1938 26.7305Z" stroke="#706C73" stroke-width="2" stroke-linejoin="round" mask="url(#path-1-outside-1_166_401)"/>
<path d="M59.6593 21.7011C59.6593 17.7751 57.5422 15.6196 53.8436 15.6196C50.043 15.6196 47.7218 18.237 47.7218 22.4709C47.7218 26.6792 50.0685 29.0656 53.9712 29.0656C56.5984 29.0656 58.588 27.8339 59.5573 25.6015L57.1851 24.5237C56.6239 25.9094 55.5271 26.6535 54.0987 26.6535C52.0836 26.6535 50.7317 25.2679 50.7062 23.1124H59.6593V21.7011ZM56.6239 21.0852H50.7062C50.7572 18.9554 51.854 17.6724 53.7671 17.6724C55.6036 17.6724 56.6494 18.7758 56.6239 20.88V21.0852Z" stroke="#706C73" stroke-width="2" stroke-linejoin="round" mask="url(#path-1-outside-1_166_401)"/>
<path d="M66.5461 15.9275V14.4906C66.5461 13.1306 67.1073 12.4634 68.3316 12.4634C68.7142 12.4634 69.1734 12.5147 69.6325 12.5917V10.2053C69.0714 10.077 68.4592 10 67.8215 10C65.0922 10 63.4852 11.6166 63.4852 14.2853V15.9275H61.2916V18.16H63.4852V28.7577H66.5461V18.16H69.6325V15.9275H66.5461Z" stroke="#706C73" stroke-width="2" stroke-linejoin="round" mask="url(#path-1-outside-1_166_401)"/>
<path d="M76.3167 15.9275V14.4906C76.3167 13.1306 76.8778 12.4634 78.1022 12.4634C78.4848 12.4634 78.9439 12.5147 79.4031 12.5917V10.2053C78.8419 10.077 78.2297 10 77.592 10C74.8627 10 73.2558 11.6166 73.2558 14.2853V15.9275H71.0621V18.16H73.2558V28.7577H76.3167V18.16H79.4031V15.9275H76.3167Z" stroke="#706C73" stroke-width="2" stroke-linejoin="round" mask="url(#path-1-outside-1_166_401)"/>
<path d="M92.7074 21.7011C92.7074 17.7751 90.5903 15.6196 86.8917 15.6196C83.0911 15.6196 80.7699 18.237 80.7699 22.4709C80.7699 26.6792 83.1166 29.0656 87.0192 29.0656C89.6465 29.0656 91.6361 27.8339 92.6054 25.6015L90.2332 24.5237C89.672 25.9094 88.5752 26.6535 87.1468 26.6535C85.1317 26.6535 83.7798 25.2679 83.7543 23.1124H92.7074V21.7011ZM89.672 21.0852H83.7543C83.8053 18.9554 84.9021 17.6724 86.8152 17.6724C88.6517 17.6724 89.6975 18.7758 89.672 20.88V21.0852Z" stroke="#706C73" stroke-width="2" stroke-linejoin="round" mask="url(#path-1-outside-1_166_401)"/>
<path d="M101.224 29.0656C104.26 29.0656 106.377 27.3207 106.836 24.4724L103.954 23.8822C103.673 25.6784 102.729 26.6279 101.224 26.6279C99.2602 26.6279 98.1124 25.0369 98.1124 22.2656C98.1124 19.6226 99.2602 18.0317 101.173 18.0317C102.678 18.0317 103.647 18.9811 103.877 20.726L106.861 20.2385C106.453 17.3132 104.387 15.6196 101.25 15.6196C97.3471 15.6196 94.9494 18.16 94.9494 22.3426C94.9494 26.4226 97.4237 29.0656 101.224 29.0656Z" stroke="#706C73" stroke-width="2" stroke-linejoin="round" mask="url(#path-1-outside-1_166_401)"/>
<path d="M110.461 18.16V24.7803C110.461 27.372 111.482 28.9886 114.543 28.9886C115.333 28.9886 115.894 28.9116 116.634 28.7577V26.166C116.226 26.243 115.894 26.3199 115.384 26.3199C114.109 26.3199 113.522 25.6528 113.522 24.2928V18.16H116.634V15.9275H113.522V11.4626L110.461 12.6943V15.9275H108.166V18.16H110.461Z" stroke="#706C73" stroke-width="2" stroke-linejoin="round" mask="url(#path-1-outside-1_166_401)"/>
<path d="M12.3712 45.2015L11.6364 49.0982H15.0241V50.7897H11.3001L10.4407 55.3128H8.64725L9.53154 50.7897H5.98192L5.11008 55.3128H3.35396L4.17597 50.7897H1V49.0982H4.4998L5.272 45.2015H1.92166V43.5226H5.57091L6.41784 39.0872H8.21133L7.37686 43.5226H10.9514L11.8108 39.0872H13.5669L12.7075 43.5226H15.9084V45.2015H12.3712ZM6.29329 49.0982H9.85536L10.6027 45.2015H7.05303L6.29329 49.0982Z" stroke="#706C73" stroke-width="2" stroke-linejoin="round" mask="url(#path-1-outside-1_166_401)"/>
<path d="M22.889 55.6207C24.7 55.6207 26.2559 54.5173 26.8426 52.9264V55.3128H29.7505V42.4827H26.6896V49.5906C26.6896 51.746 25.5672 53.1573 23.8582 53.1573C22.4043 53.1573 21.6136 52.1309 21.6136 50.2577V42.4827H18.5527V50.7196C18.5527 53.7219 19.7515 55.6207 22.889 55.6207Z" stroke="#706C73" stroke-width="2" stroke-linejoin="round" mask="url(#path-1-outside-1_166_401)"/>
<path d="M36.5962 55.3128V48.5128C36.5962 46.0751 37.6675 44.6381 39.453 44.6381C41.06 44.6381 41.8507 45.6389 41.8507 47.666V55.3128H44.9116V47.3581C44.9116 43.9196 43.4832 42.1747 40.7029 42.1747C38.7133 42.1747 37.3104 43.0985 36.4687 44.9717V42.4827H33.5353V55.3128H36.5962Z" stroke="#706C73" stroke-width="2" stroke-linejoin="round" mask="url(#path-1-outside-1_166_401)"/>
<path d="M52.7225 55.6207C54.6611 55.6207 56.115 54.6456 56.8037 53.0034V55.3128H59.7115V36.7091H56.6506V44.3045C55.9109 42.8676 54.6356 42.1747 52.9776 42.1747C49.7891 42.1747 47.5955 44.8947 47.5955 48.9234C47.5955 52.9264 49.6616 55.6207 52.7225 55.6207ZM53.7938 53.26C51.9063 53.26 50.7839 51.6177 50.7839 48.8721C50.7839 46.1264 51.8807 44.5355 53.7683 44.5355C55.5793 44.5355 56.7017 45.9981 56.7017 48.5128V49.334C56.7017 51.746 55.5793 53.26 53.7938 53.26Z" stroke="#706C73" stroke-width="2" stroke-linejoin="round" mask="url(#path-1-outside-1_166_401)"/>
<path d="M74.6609 48.2562C74.6609 44.3302 72.5438 42.1747 68.8452 42.1747C65.0446 42.1747 62.7234 44.7921 62.7234 49.026C62.7234 53.2343 65.0701 55.6207 68.9727 55.6207C71.6 55.6207 73.5896 54.389 74.5588 52.1566L72.1866 51.0789C71.6255 52.4645 70.5287 53.2087 69.1003 53.2087C67.0852 53.2087 65.7333 51.823 65.7078 49.6675H74.6609V48.2562ZM71.6255 47.6404H65.7078C65.7588 45.5106 66.8556 44.2276 68.7687 44.2276C70.6052 44.2276 71.651 45.331 71.6255 47.4351V47.6404Z" stroke="#706C73" stroke-width="2" stroke-linejoin="round" mask="url(#path-1-outside-1_166_401)"/>
<path d="M80.525 42.4827H77.6682V55.3128H80.729V49.9241C80.729 48.5128 80.8566 47.0502 81.9024 46.0494C82.4636 45.4849 83.3308 45.1257 84.5552 45.1257C84.6827 45.1257 84.8102 45.1513 84.9633 45.1513V42.2004C84.8357 42.1747 84.7082 42.1747 84.5807 42.1747C82.5401 42.1747 81.1627 43.5604 80.525 45.5876V42.4827Z" stroke="#706C73" stroke-width="2" stroke-linejoin="round" mask="url(#path-1-outside-1_166_401)"/>
<path d="M92.9678 55.3128L95.136 46.9989C95.238 46.614 95.3655 45.9211 95.391 45.5876H95.4676C95.4931 45.9211 95.6206 46.614 95.7226 46.9989L97.8908 55.3128H101.003L104.523 42.4827H101.487L99.5232 51.0275C99.4467 51.4381 99.3447 51.9256 99.2937 52.4132H99.2427C99.1917 51.9256 99.0641 51.4381 98.9621 51.0275L96.8705 42.4827H93.9881L91.8965 51.0275C91.7945 51.4381 91.667 51.9256 91.6159 52.4132H91.5649C91.5139 51.9256 91.4119 51.4381 91.3354 51.0275L89.3713 42.4827H86.3359L89.8559 55.3128H92.9678Z" stroke="#706C73" stroke-width="2" stroke-linejoin="round" mask="url(#path-1-outside-1_166_401)"/>
<path d="M110.27 55.6207C112.31 55.6207 113.917 54.6713 114.529 53.106C114.555 53.9015 114.631 54.6713 114.733 55.3128H117.794C117.539 54.4147 117.412 53.0804 117.412 51.3355V47.5121C117.412 43.7913 115.728 42.1747 111.953 42.1747C108.663 42.1747 106.52 43.8683 106.316 46.614H109.453C109.555 45.1513 110.448 44.3559 111.953 44.3559C113.586 44.3559 114.325 45.177 114.325 47.1015V47.4351L111.622 47.7687C109.606 48.0509 108.382 48.3845 107.464 48.9234C106.444 49.5649 105.908 50.5913 105.908 51.823C105.908 54.1068 107.642 55.6207 110.27 55.6207ZM111.239 53.4396C109.887 53.4396 109.071 52.7468 109.071 51.669C109.071 50.5657 109.836 49.9498 111.52 49.6675L114.402 49.2313V50.0524C114.402 52.0796 113.126 53.4396 111.239 53.4396Z" stroke="#706C73" stroke-width="2" stroke-linejoin="round" mask="url(#path-1-outside-1_166_401)"/>
<path d="M121.745 44.7151V51.3355C121.745 53.9272 122.766 55.5438 125.827 55.5438C126.617 55.5438 127.178 55.4668 127.918 55.3128V52.7211C127.51 52.7981 127.178 52.8751 126.668 52.8751C125.393 52.8751 124.806 52.2079 124.806 50.8479V44.7151H127.918V42.4827H124.806V38.0178L121.745 39.2495V42.4827H119.45V44.7151H121.745Z" stroke="#706C73" stroke-width="2" stroke-linejoin="round" mask="url(#path-1-outside-1_166_401)"/>
<path d="M141.698 48.2562C141.698 44.3302 139.58 42.1747 135.882 42.1747C132.081 42.1747 129.76 44.7921 129.76 49.026C129.76 53.2343 132.107 55.6207 136.009 55.6207C138.637 55.6207 140.626 54.389 141.596 52.1566L139.223 51.0789C138.662 52.4645 137.565 53.2087 136.137 53.2087C134.122 53.2087 132.77 51.823 132.744 49.6675H141.698V48.2562ZM138.662 47.6404H132.744C132.795 45.5106 133.892 44.2276 135.805 44.2276C137.642 44.2276 138.688 45.331 138.662 47.4351V47.6404Z" stroke="#706C73" stroke-width="2" stroke-linejoin="round" mask="url(#path-1-outside-1_166_401)"/>
<path d="M147.562 42.4827H144.705V55.3128H147.766V49.9241C147.766 48.5128 147.893 47.0502 148.939 46.0494C149.5 45.4849 150.368 45.1257 151.592 45.1257C151.719 45.1257 151.847 45.1513 152 45.1513V42.2004C151.872 42.1747 151.745 42.1747 151.617 42.1747C149.577 42.1747 148.199 43.5604 147.562 45.5876V42.4827Z" stroke="#706C73" stroke-width="2" stroke-linejoin="round" mask="url(#path-1-outside-1_166_401)"/>
<path d="M12.3712 71.7567L11.6364 75.6533H15.0241V77.3448H11.3001L10.4407 81.8679H8.64725L9.53154 77.3448H5.98192L5.11008 81.8679H3.35396L4.17597 77.3448H1V75.6533H4.4998L5.272 71.7567H1.92166V70.0777H5.57091L6.41784 65.6423H8.21133L7.37686 70.0777H10.9514L11.8108 65.6423H13.5669L12.7075 70.0777H15.9084V71.7567H12.3712ZM6.29329 75.6533H9.85536L10.6027 71.7567H7.05303L6.29329 75.6533Z" stroke="#706C73" stroke-width="2" stroke-linejoin="round" mask="url(#path-1-outside-1_166_401)"/>
<path d="M23.093 82.1759C25.0316 82.1759 26.4855 81.2008 27.1742 79.5585V81.8679H30.0821V63.2642H27.0212V70.8597C26.2814 69.4227 25.0061 68.7299 23.3481 68.7299C20.1597 68.7299 17.966 71.4499 17.966 75.4785C17.966 79.4815 20.0321 82.1759 23.093 82.1759ZM24.1643 79.8151C22.2768 79.8151 21.1545 78.1729 21.1545 75.4272C21.1545 72.6816 22.2513 71.0906 24.1388 71.0906C25.9499 71.0906 27.0722 72.5533 27.0722 75.068V75.8891C27.0722 78.3012 25.9499 79.8151 24.1643 79.8151Z" stroke="#706C73" stroke-width="2" stroke-linejoin="round" mask="url(#path-1-outside-1_166_401)"/>
<path d="M45.0314 74.8114C45.0314 70.8853 42.9143 68.7299 39.2157 68.7299C35.4151 68.7299 33.0939 71.3472 33.0939 75.5812C33.0939 79.7895 35.4406 82.1759 39.3432 82.1759C41.9705 82.1759 43.9601 80.9442 44.9294 78.7117L42.5572 77.634C41.996 79.0196 40.8992 79.7638 39.4708 79.7638C37.4557 79.7638 36.1038 78.3781 36.0783 76.2227H45.0314V74.8114ZM41.996 74.1955H36.0783C36.1293 72.0657 37.2261 70.7827 39.1392 70.7827C40.9757 70.7827 42.0215 71.8861 41.996 73.9902V74.1955Z" stroke="#706C73" stroke-width="2" stroke-linejoin="round" mask="url(#path-1-outside-1_166_401)"/>
<path d="M52.7333 82.1759C56.0492 82.1759 57.9623 80.5336 57.9623 78.1215C57.9623 76.0944 56.891 74.8627 54.4423 74.4265L51.9425 73.9646C50.8202 73.7593 50.2335 73.3744 50.2335 72.5019C50.2335 71.5012 51.0498 70.9623 52.4782 70.9623C54.1617 70.9623 55.284 71.6808 55.8962 72.8355L58.0133 71.6808C57.4011 69.8333 55.3605 68.7299 52.6312 68.7299C49.3918 68.7299 47.4277 70.3721 47.4277 72.6816C47.4277 74.7344 48.7031 75.9917 51.0753 76.428L53.3454 76.8385C54.6208 77.0438 55.182 77.4031 55.182 78.3268C55.182 79.2506 54.3657 79.9178 52.7843 79.9178C50.9732 79.9178 49.6979 79.0966 49.1367 77.6597L46.8665 78.6861C47.6573 80.9442 49.8254 82.1759 52.7333 82.1759Z" stroke="#706C73" stroke-width="2" stroke-linejoin="round" mask="url(#path-1-outside-1_166_401)"/>
<path d="M61.7641 71.2702V77.8906C61.7641 80.4823 62.7844 82.0989 65.8453 82.0989C66.636 82.0989 67.1972 82.0219 67.9369 81.8679V79.2763C67.5288 79.3532 67.1972 79.4302 66.687 79.4302C65.4116 79.4302 64.825 78.763 64.825 77.403V71.2702H67.9369V69.0378H64.825V64.5729L61.7641 65.8046V69.0378H59.4684V71.2702H61.7641Z" stroke="#706C73" stroke-width="2" stroke-linejoin="round" mask="url(#path-1-outside-1_166_401)"/>
<path d="M73.5254 69.0378H70.6686V81.8679H73.7295V76.4793C73.7295 75.068 73.857 73.6053 74.9028 72.6046C75.464 72.04 76.3312 71.6808 77.5556 71.6808C77.6831 71.6808 77.8106 71.7065 77.9637 71.7065V68.7555C77.8362 68.7299 77.7086 68.7299 77.5811 68.7299C75.5405 68.7299 74.1631 70.1155 73.5254 72.1427V69.0378Z" stroke="#706C73" stroke-width="2" stroke-linejoin="round" mask="url(#path-1-outside-1_166_401)"/>
<path d="M85.699 82.1759C89.3721 82.1759 91.9738 79.7381 91.9738 75.4272C91.9738 71.1419 89.3721 68.7299 85.699 68.7299C82.0259 68.7299 79.4497 71.1419 79.4497 75.4272C79.4497 79.7381 82.0259 82.1759 85.699 82.1759ZM85.699 79.8408C83.7349 79.8408 82.5871 78.3525 82.5871 75.4272C82.5871 72.5019 83.7349 71.065 85.699 71.065C87.6631 71.065 88.8364 72.5019 88.8364 75.4272C88.8364 78.3525 87.6631 79.8408 85.699 79.8408Z" stroke="#706C73" stroke-width="2" stroke-linejoin="round" mask="url(#path-1-outside-1_166_401)"/>
<path d="M95.3554 87C98.0847 87 99.8192 85.8453 100.967 82.5864L105.737 69.0378H102.574L100.023 77.4287C99.8447 78.0959 99.7171 78.5578 99.6406 78.9427H99.5896C99.5386 78.5064 99.4366 78.0189 99.2325 77.4287L96.4522 69.0378H93.0852L98.0592 81.7396L97.8041 82.5094C97.3194 83.9208 96.5287 84.5366 95.0238 84.5366C94.7177 84.5366 94.4116 84.5366 93.9525 84.434V86.8717C94.4881 86.9487 94.9728 87 95.3554 87Z" stroke="#706C73" stroke-width="2" stroke-linejoin="round" mask="url(#path-1-outside-1_166_401)"/>
</svg>
